<svg width="43" height="39" viewBox="0 0 43 39" fill="none" xmlns="http://www.w3.org/2000/svg">
<path d="M9.2122 37.4172L1.2335 26.9777C0.967353 26.6292 1.0336 26.1309 1.38227 25.8649L5.84638 22.4567C6.49723 21.9595 7.42701 22.085 7.92445 22.7343L15.7741 33.0042C16.1123 33.4468 16.0275 34.0787 15.5847 34.4167L11.2903 37.696C10.6394 38.1932 9.70963 38.0677 9.2122 37.4184V37.4172Z" stroke="#F76D00" stroke-width="2" stroke-linecap="round" stroke-linejoin="round"/>
<path d="M15.791 32.8147L28.6929 31.9505C30.5501 31.7681 30.9244 31.5102 32.1912 30.3184L41.4937 20.6131C42.0097 20.0752 41.9911 19.2203 41.453 18.7057C40.2024 17.5081 38.2418 17.4697 36.9447 18.6162L32.8188 22.266L32.4713 22.5739" stroke="#F76D00" stroke-width="2" stroke-linecap="round" stroke-linejoin="round"/>
<path d="M20.0742 26.7778L28.885 26.2458C29.8334 26.1877 30.5668 25.392 30.5458 24.443C30.5145 22.9956 29.329 21.841 27.8797 21.8479L21.4456 21.8781C21.4456 21.8781 19.192 19.1077 14.492 19.4143C11.4342 19.6141 9.83493 20.8431 8.01953 22.7354" stroke="#F76D00" stroke-width="2" stroke-linecap="round" stroke-linejoin="round"/>
<path d="M11.1544 33.1162C11.1521 33.2637 11.0312 33.3811 10.8848 33.3787C10.7372 33.3764 10.6198 33.2556 10.6221 33.1092C10.6244 32.9617 10.7453 32.8444 10.8917 32.8467C11.0393 32.849 11.1567 32.9698 11.1544 33.1162Z" stroke="#F76D00" stroke-width="2" stroke-linecap="round" stroke-linejoin="round"/>
<path d="M32.3933 19.3641V1H25.9581C24.195 1 22.7666 2.42763 22.7666 4.18981" stroke="#F76D00" stroke-width="2" stroke-linecap="round" stroke-linejoin="round"/>
<path d="M21.3343 1.52738C20.8299 1.19399 20.2256 1 19.5759 1H13.1406V17.4695" stroke="#F76D00" stroke-width="2" stroke-linecap="round" stroke-linejoin="round"/>
<path d="M10.938 3.21094H9.6084V18.5838" stroke="#F76D00" stroke-width="2" stroke-linecap="round" stroke-linejoin="round"/>
<path d="M34.5967 3.21094H35.9263V16.1711" stroke="#F76D00" stroke-width="2" stroke-linecap="round" stroke-linejoin="round"/>
<path d="M22.7676 4.18945V19.5414" stroke="#F76D00" stroke-width="2" stroke-linecap="round" stroke-linejoin="round"/>
<path d="M29.2175 5.49023H25.9424" stroke="#F76D00" stroke-width="2" stroke-linecap="round" stroke-linejoin="round"/>
<path d="M29.2175 9.76562H25.9424" stroke="#F76D00" stroke-width="2" stroke-linecap="round" stroke-linejoin="round"/>
<path d="M29.2175 14.041H25.9424" stroke="#F76D00" stroke-width="2" stroke-linecap="round" stroke-linejoin="round"/>
<path d="M29.2175 18.3145H25.9424" stroke="#F76D00" stroke-width="2" stroke-linecap="round" stroke-linejoin="round"/>
<path d="M19.5808 5.97852H16.3057" stroke="#F76D00" stroke-width="2" stroke-linecap="round" stroke-linejoin="round"/>
<path d="M19.5808 10.375H16.3057" stroke="#F76D00" stroke-width="2" stroke-linecap="round" stroke-linejoin="round"/>
<path d="M19.5808 14.7715H16.3057" stroke="#F76D00" stroke-width="2" stroke-linecap="round" stroke-linejoin="round"/>
</svg>
