<svg width="38" height="40" viewBox="0 0 38 40" fill="none" xmlns="http://www.w3.org/2000/svg">
<path d="M22.7812 28.5342L30.4979 30.4002C32.9465 30.9925 34.6699 33.1764 34.6699 35.6863V36.9612" stroke="#F76D00" stroke-width="1.5" stroke-linecap="round" stroke-linejoin="round"/>
<path d="M3 36.9603V35.6853C3 33.1754 4.72344 30.9915 7.17204 30.3992L14.8887 28.5332" stroke="#F76D00" stroke-width="1.5" stroke-linecap="round" stroke-linejoin="round"/>
<path d="M22.7805 28.5342L19.8316 34.5076C19.4243 35.3321 18.2459 35.3321 17.8386 34.5076L14.8896 28.5342" stroke="#F76D00" stroke-width="1.5" stroke-linecap="round" stroke-linejoin="round"/>
<path d="M15.4314 26.7422L14.8887 28.5343" stroke="#F76D00" stroke-width="1.5" stroke-linecap="round" stroke-linejoin="round"/>
<path d="M22.781 28.5343L22.2383 26.7422" stroke="#F76D00" stroke-width="1.5" stroke-linecap="round" stroke-linejoin="round"/>
<path d="M18.835 25.4617C24.2231 25.4617 25.4332 19.9058 25.5168 18.4573C26.2855 18.2345 27.152 17.5366 27.152 16.1995C27.152 15.287 26.614 14.561 25.4332 13.9805" stroke="#F76D00" stroke-width="1.5" stroke-linecap="round" stroke-linejoin="round"/>
<path d="M18.8346 25.4617C13.4465 25.4617 12.2363 19.9058 12.1527 18.4573C11.384 18.2345 10.5176 17.5366 10.5176 16.1995C10.5176 15.287 11.1262 14.561 12.3069 13.9805" stroke="#F76D00" stroke-width="1.5" stroke-linecap="round" stroke-linejoin="round"/>
<path d="M27.8822 10.341L32.5875 8.1454C33.0066 7.94953 33.0066 7.35489 32.5875 7.15902L19.863 1.22079C19.2332 0.926403 18.5045 0.926403 17.8747 1.22079L5.15025 7.15902C4.73117 7.35489 4.73117 7.94953 5.15025 8.1454L9.88853 10.3563" stroke="#F76D00" stroke-width="1.5" stroke-linecap="round" stroke-linejoin="round"/>
<path d="M18.8701 7.58105C22.4853 7.58105 24.3795 8.58737 25.094 9.08232C25.3095 9.23128 25.4342 9.47875 25.4342 9.7403V13.979C25.4342 13.979 23.0374 12.5317 18.8701 12.5317" stroke="#F76D00" stroke-width="1.5" stroke-linecap="round" stroke-linejoin="round"/>
<path d="M18.8698 7.58203C15.2546 7.58203 13.3604 8.58835 12.6459 9.0833C12.4304 9.23226 12.3057 9.47973 12.3057 9.74128V13.98C12.3057 13.98 14.7025 12.5327 18.8698 12.5327" stroke="#F76D00" stroke-width="1.5" stroke-linecap="round" stroke-linejoin="round"/>
<path d="M15.9037 16.9253C16.0032 16.9253 16.0839 16.845 16.0839 16.7459C16.0839 16.6467 16.0032 16.5664 15.9037 16.5664C15.8043 16.5664 15.7236 16.6467 15.7236 16.7459C15.7236 16.845 15.8043 16.9253 15.9037 16.9253Z" stroke="#F76D00" stroke-width="1.5" stroke-linecap="round" stroke-linejoin="round"/>
<path d="M21.8354 16.9253C21.9349 16.9253 22.0155 16.845 22.0155 16.7459C22.0155 16.6467 21.9349 16.5664 21.8354 16.5664C21.7359 16.5664 21.6553 16.6467 21.6553 16.7459C21.6553 16.845 21.7359 16.9253 21.8354 16.9253Z" stroke="#F76D00" stroke-width="1.5" stroke-linecap="round" stroke-linejoin="round"/>
<path d="M20.6549 21.0557C20.2135 21.4744 19.5613 21.7383 18.835 21.7383" stroke="#F76D00" stroke-width="1.5" stroke-linecap="round" stroke-linejoin="round"/>
<path d="M17.0146 21.0557C17.4561 21.4744 18.1083 21.7383 18.8346 21.7383" stroke="#F76D00" stroke-width="1.5" stroke-linecap="round" stroke-linejoin="round"/>
<path d="M36.8096 39H1" stroke="#F76D00" stroke-width="1.5" stroke-linecap="round" stroke-linejoin="round"/>
<path d="M4.83594 7.65137V13.9802" stroke="#F76D00" stroke-width="1.5" stroke-linecap="round" stroke-linejoin="round"/>
<path d="M4.83528 13.9805C3.96414 13.9805 3.25781 14.6842 3.25781 15.5521C3.25781 16.42 3.96414 17.1238 4.83528 17.1238C5.70641 17.1238 6.41274 16.42 6.41274 15.5521" stroke="#F76D00" stroke-width="1.5" stroke-linecap="round" stroke-linejoin="round"/>
</svg>
