<?xml version="1.0" encoding="UTF-8"?>
<svg version="1.1" xmlns="http://www.w3.org/2000/svg" width="38" height="40">
<path d="M0 0 C8.77578475 -0.76681614 8.77578475 -0.76681614 11.77734375 1.11328125 C13.125 2.5 13.125 2.5 15 5 C17.18785263 4.01923848 18.75512761 3.29151474 20.3125 1.4375 C22.64294725 -0.54769581 24.17581666 -0.30483831 27.1875 -0.1875 C28.08855469 -0.16042969 28.98960938 -0.13335938 29.91796875 -0.10546875 C30.94857422 -0.05326172 30.94857422 -0.05326172 32 0 C31.45015228 3.87511727 29.72444669 5.59576506 26.9375 8.25 C25.83728516 9.30960938 25.83728516 9.30960938 24.71484375 10.390625 C24.14894531 10.92171875 23.58304688 11.4528125 23 12 C23.66 12.845625 24.32 13.69125 25 14.5625 C27.32414711 18.55712785 27.64935383 20.45452321 27 25 C23.92307692 30.53846154 23.92307692 30.53846154 21 32 C15.79328939 32.64507919 12.18290165 32.9173523 7.9375 29.625 C4.89196002 25.49878454 4.56931054 23.16827351 5 18 C7 14.5625 7 14.5625 9 12 C8.3503125 11.38511719 7.700625 10.77023438 7.03125 10.13671875 C6.1959375 9.32847656 5.360625 8.52023437 4.5 7.6875 C3.6646875 6.88699219 2.829375 6.08648437 1.96875 5.26171875 C0 3 0 3 0 0 Z " fill="#FFCE00" transform="translate(3,6)"/>
<path d="M0 0 C8.77578475 -0.76681614 8.77578475 -0.76681614 11.77734375 1.11328125 C13.125 2.5 13.125 2.5 15 5 C17.18785263 4.01923848 18.75512761 3.29151474 20.3125 1.4375 C22.64294725 -0.54769581 24.17581666 -0.30483831 27.1875 -0.1875 C28.08855469 -0.16042969 28.98960938 -0.13335938 29.91796875 -0.10546875 C30.94857422 -0.05326172 30.94857422 -0.05326172 32 0 C31.20659837 4.57493926 28.94197976 7.1713062 25.640625 10.32421875 C21.32105207 13.06548618 17.4551214 13.13745271 12.43359375 12.8671875 C6.71719852 11.42345628 3.17791671 7.86776131 0 3 C0 2.01 0 1.02 0 0 Z " fill="#FE6C39" transform="translate(3,6)"/>
<path d="M0 0 C0 6.93 0 13.86 0 21 C-7 20 -7 20 -9.4375 17.375 C-11.2330622 13.49658565 -11.53790808 11.2264206 -11 7 C-9.69802176 4.07054896 -8.71474633 2.484183 -6.0625 0.6875 C-4 0 -4 0 0 0 Z " fill="#FFF200" transform="translate(19,17)"/>
<path d="M0 0 C-0.57053665 3.77235429 -2.16643421 5.62716051 -4.8125 8.3125 C-5.49957031 9.03050781 -6.18664063 9.74851562 -6.89453125 10.48828125 C-9 12 -9 12 -11.15234375 11.828125 C-13.26713947 10.8802673 -14.48777091 9.73906345 -16 8 C-12.49956 -0.16769333 -8.27191282 -0.56829935 0 0 Z " fill="#D11072" transform="translate(35,6)"/>
<path d="M0 0 C3.55948201 0.32358927 5.53463476 0.6100994 8.3125 2.9375 C11.35333963 6.65408177 11.3985722 9.21713365 11 14 C9.4375 17.375 9.4375 17.375 7 20 C3.25 20.875 3.25 20.875 0 21 C0 20.34 0 19.68 0 19 C0.969375 18.525625 1.93875 18.05125 2.9375 17.5625 C5.80477437 16.29806053 5.80477437 16.29806053 7 15 C7.36860081 11.96659661 7.40472839 9.02999365 7 6 C4.75938325 3.52759532 3.17070471 3.05690157 0 2 C0 1.34 0 0.68 0 0 Z " fill="#FFB200" transform="translate(19,17)"/>
<path d="M0 0 C0 0.66 0 1.32 0 2 C-1.423125 2.6496875 -1.423125 2.6496875 -2.875 3.3125 C-6.20041937 4.79302201 -6.20041937 4.79302201 -8 8 C-7.8661832 12.9618866 -7.8661832 12.9618866 -5.125 16.875 C-2.91437553 18.11987426 -2.91437553 18.11987426 0 19 C0 19.66 0 20.32 0 21 C-4.40953207 20.83040261 -6.37415574 20.67398613 -9.4375 17.375 C-11.2330622 13.49658565 -11.53790808 11.2264206 -11 7 C-9.69802176 4.07054896 -8.71474633 2.484183 -6.0625 0.6875 C-4 0 -4 0 0 0 Z " fill="#FFCF01" transform="translate(19,17)"/>
<path d="M0 0 C0.99 0.495 0.99 0.495 2 1 C2 1.66 2 2.32 2 3 C3.32 3.33 4.64 3.66 6 4 C5.34 6.64 4.68 9.28 4 12 C2.68 11.67 1.36 11.34 0 11 C0 7.37 0 3.74 0 0 Z " fill="#FFAC00" transform="translate(19,21)"/>
<path d="M0 0 C0.33 0 0.66 0 1 0 C1 3.63 1 7.26 1 11 C-0.32 11.33 -1.64 11.66 -3 12 C-3.66 9.36 -4.32 6.72 -5 4 C-3.68 3.67 -2.36 3.34 -1 3 C-0.67 2.01 -0.34 1.02 0 0 Z " fill="#FFD100" transform="translate(18,21)"/>
<path d="M0 0 C2.97 0.495 2.97 0.495 6 1 C6.33 2.32 6.66 3.64 7 5 C4.69 4.01 2.38 3.02 0 2 C0 1.34 0 0.68 0 0 Z " fill="#FDA309" transform="translate(19,17)"/>
</svg>
