<?xml version="1.0" encoding="UTF-8"?>
<svg version="1.1" xmlns="http://www.w3.org/2000/svg" width="38" height="40">
<path d="M0 0 C4.73573519 1.73036478 6.79765703 3.47940128 9 8 C9.33 8.66 9.66 9.32 10 10 C10.30015195 13.90197539 10.46596823 16.24728209 8.375 19.625 C6.14780523 25.09175079 7.83448355 30.34850297 9 36 C7.515 36.495 7.515 36.495 6 37 C5.34 36.67 4.68 36.34 4 36 C3.67 36.66 3.34 37.32 3 38 C1.68 38 0.36 38 -1 38 C-1.99 34.535 -1.99 34.535 -3 31 C-3.99 33.31 -4.98 35.62 -6 38 C-7.32 38 -8.64 38 -10 38 C-10.33 37.34 -10.66 36.68 -11 36 C-12.98 36.495 -12.98 36.495 -15 37 C-16 34 -16 34 -15 30.625 C-13.75807325 26.12301554 -14.19062458 23.80919213 -16.0625 19.625 C-17.70686392 15.02078103 -17.47979825 11.31313205 -15.8125 6.75 C-13.82136131 3.72896199 -12.22070536 2.56906159 -9 1 C-5.92805092 -0.53597454 -3.39755707 -0.2265038 0 0 Z " fill="#FECA28" transform="translate(23,1)"/>
<path d="M0 0 C2.01143868 3.01715802 3.0798712 4.90842698 2.8125 8.5625 C2.544375 9.366875 2.27625 10.17125 2 11 C1.773125 11.86625 1.54625 12.7325 1.3125 13.625 C-0.62645269 17.13358105 -2.1765161 17.74747941 -6 19 C-10.01382402 19.23550498 -13.98468977 19.17542617 -18 19 C-17.34 18.67 -16.68 18.34 -16 18 C-16.30035156 17.48050781 -16.60070312 16.96101563 -16.91015625 16.42578125 C-20.01732271 10.72755394 -20.01732271 10.72755394 -19.9375 7.375 C-19.4734375 6.199375 -19.4734375 6.199375 -19 5 C-18.5875 3.948125 -18.175 2.89625 -17.75 1.8125 C-16 -1 -16 -1 -13.6875 -2.4375 C-8.93628569 -3.4319402 -4.19922339 -2.38334301 0 0 Z " fill="#FEA924" transform="translate(28,6)"/>
<path d="M0 0 C3.40524375 0.68104875 4.52547983 1.6479153 6.5 4.5 C6.92519574 7.96230815 7.13902633 10.3347167 5.4375 13.4375 C2.38023824 15.1140629 -0.0906288 14.86528977 -3.5 14.5 C-5.4375 13.4375 -5.4375 13.4375 -6.5 11.5 C-7.004958 7.5324729 -7.11854451 5.39345318 -4.8125 2.0625 C-2.5 0.5 -2.5 0.5 0 0 Z " fill="#FFCF16" transform="translate(19.5,6.5)"/>
<path d="M0 0 C3.62528568 -0.20140476 5.86501708 0.14223235 9 2 C8.85831863 3.43791516 8.71148957 4.8753237 8.5625 6.3125 C8.48128906 7.11300781 8.40007813 7.91351563 8.31640625 8.73828125 C8 11 8 11 7 14 C5.68 14 4.36 14 3 14 C2.67 13.34 2.34 12.68 2 12 C0.68 12.33 -0.64 12.66 -2 13 C-3.18414294 9.44757118 -2.69535532 8.30169438 -1.5625 4.8125 C-1.27503906 3.91144531 -0.98757812 3.01039062 -0.69140625 2.08203125 C-0.46324219 1.39496094 -0.23507812 0.70789063 0 0 Z " fill="#FA3D47" transform="translate(10,25)"/>
<path d="M0 0 C0.99 3.96 1.98 7.92 3 12 C2.01 12.33 1.02 12.66 0 13 C-0.66 12.67 -1.32 12.34 -2 12 C-2.33 12.66 -2.66 13.32 -3 14 C-4.32 14 -5.64 14 -7 14 C-8.29243536 9.8803623 -9.26252625 6.33168317 -9 2 C-5.53785351 -0.05164237 -4.40610765 0 0 0 Z " fill="#FA3D47" transform="translate(29,25)"/>
</svg>
